/* XPM */
static char * 32_xpm[] = {
"32 32 2 1",
" 	c None",
".	c #008000",
"            ........            ",
"         ..............         ",
"       ..................       ",
"      ....................      ",
"     ......................     ",
"    ........................    ",
"   ..........................   ",
"  .......................  ...  ",
"  .....................    ...  ",
" .........         ... ........ ",
" ........ ... ....... ......... ",
" ....... .... ......  ......... ",
".......  ...  ...... ...........",
".......  ...  ...... ...........",
".......  ... ......  ...........",
".......  ... ......  ...........",
"...........   ....   ... .......",
"...........  ...... ...  .......",
"........... ......  ...  .......",
"........... ......  ...  .......",
" .........  ...... .... ....... ",
" ......... ....... ...  ....... ",
" ........ ...         ......... ",
"  ....   .....................  ",
"  ...  .......................  ",
"   ..........................   ",
"    ........................    ",
"     ......................     ",
"      ....................      ",
"       ..................       ",
"         ..............         ",
"            ........            "};
