/* XPM */
static char * freicoin80_xpm[] = {
"80 80 4 1",
" 	c None",
".	c #008000",
"+	c #008100",
"@	c #007F00",
"                                   ..........                                   ",
"                             ......................                             ",
"                          ............................                          ",
"                        ................................                        ",
"                      ....................................                      ",
"                    ........................................                    ",
"                  ............................................                  ",
"                 ..............................................                 ",
"                ................................................                ",
"              ....................................................              ",
"             ......................................................             ",
"            ........................................................            ",
"           ..........................................................           ",
"          ............................................................          ",
"         ..............................................................         ",
"        ...............................................................         ",
"        ................................................................        ",
"       ..................................................................       ",
"      ...........................................................  .......      ",
"      ......................................................        ......      ",
"     ......................................................        ........     ",
"     ........................................... ........         .........     ",
"    .........................................    .......   .................    ",
"    .......................                    ........  ...................    ",
"   .....................                      ........  .....................   ",
"   ....................   ......    .................   .....................   ",
"  ...................   ........    ................   .......................  ",
"  ..................   .........    ...............    .......................  ",
"  .................   .........     ...............   ........................  ",
" ..................   .........    ...............    ......................... ",
" .................   ..........    ...............    ......................... ",
" .................   ..........    ...............    ......................... ",
" ................    ..........   ...............    .......................... ",
" ................    .........    ...............    .......................... ",
".................    .........    ...............    ...........................",
".................     ........    ...............    ..........................+",
".................     .......     ..............    ............................",
".................     .......    ...............    ............................",
".................     .......    ...............    ............................",
".................   ........@                        ...........................",
"............................                        .........  .................",
"...........................      ..............    ........    .................",
"............................    ...............    .......     .................",
"............................    ...............    .......     .................",
"...........................     ..............    ........     .................",
"...........................    ...............    .........    .................",
" ..........................    ...............    .........    ................ ",
" ..........................    ...............    .........    ................ ",
" .........................     ..............    ..........   ................. ",
" .........................    ...............    ..........   ................. ",
" .........................    ...............    .........   .................. ",
"  ........................   ................    .........   .................  ",
"  .......................    ...............    .........   ..................  ",
"  .......................   ................    ........   ...................  ",
"   .....................   .................    .......   ...................   ",
"   .....................   ........     ...     .....   .....................   ",
"    ...................   .......                     ......................    ",
"    ..................  ........      ......................................    ",
"    ..........         ........  ...........................................    ",
"     ........         .....................................................     ",
"      .......       ......................................................      ",
"      ......      ........................................................      ",
"       ..................................................................       ",
"        ................................................................        ",
"        +..............................................................@        ",
"         ..............................................................         ",
"          ............................................................          ",
"           ..........................................................           ",
"            ........................................................            ",
"             ......................................................             ",
"              ....................................................              ",
"               .................................................@               ",
"                 ..............................................                 ",
"                  ............................................                  ",
"                    ........................................                    ",
"                     ......................................                     ",
"                       .................................+                       ",
"                          ............................                          ",
"                             ......................                             ",
"                                 ..............                                 "};
